<mxfile host="app.diagrams.net" modified="2023-09-22T12:11:11.626Z" agent="Mozilla/5.0 (Macintosh; Intel Mac OS X 10_15_7) AppleWebKit/537.36 (KHTML, like Gecko) Chrome/117.0.0.0 Safari/537.36 Edg/117.0.2045.31" version="21.3.7" etag="cQC4TvUe1L5YAVjrDzEU" type="github">
  <diagram name="Pagina-1" id="mJlwiJq9raq-yvub0vJI">
    <mxGraphModel>
      <root>
        <mxCell id="0" />
        <mxCell id="1" parent="0" />
      </root>
    </mxGraphModel>
  </diagram>
</mxfile>
